REM DIRINDEX 1\2,1\3
REM DIRNAME cjc143,folder01,folder02
TITLE ""
FILE "2000 phrasesTrack36.mp3" MP3
  TRACK 01 AUDIO
    TITLE "2:cjc143_1291"
    INDEX 01 00:00:00
  TRACK 02 AUDIO
    TITLE "0:"
    INDEX 01 00:00:68
  TRACK 03 AUDIO
    TITLE "2:cjc143_1292"
    INDEX 01 00:01:52
  TRACK 04 AUDIO
    TITLE "0:"
    INDEX 01 00:03:04
  TRACK 05 AUDIO
    TITLE "2:cjc143_1293"
    INDEX 01 00:03:19
  TRACK 06 AUDIO
    TITLE "0:"
    INDEX 01 00:04:44
  TRACK 07 AUDIO
    TITLE "2:cjc143_1294"
    INDEX 01 00:04:58
  TRACK 08 AUDIO
    TITLE "0:"
    INDEX 01 00:06:12
  TRACK 09 AUDIO
    TITLE "2:cjc143_1295"
    INDEX 01 00:06:31
  TRACK 10 AUDIO
    TITLE "0:"
    INDEX 01 00:08:05
  TRACK 11 AUDIO
    TITLE "2:cjc143_1296"
    INDEX 01 00:08:21
  TRACK 12 AUDIO
    TITLE "0:"
    INDEX 01 00:09:55
  TRACK 13 AUDIO
    TITLE "2:cjc143_1297"
    INDEX 01 00:09:63
  TRACK 14 AUDIO
    TITLE "0:"
    INDEX 01 00:11:40
  TRACK 15 AUDIO
    TITLE "2:cjc143_1298"
    INDEX 01 00:11:44
  TRACK 16 AUDIO
    TITLE "0:"
    INDEX 01 00:13:06
  TRACK 17 AUDIO
    TITLE "2:cjc143_1299"
    INDEX 01 00:13:18
  TRACK 18 AUDIO
    TITLE "0:"
    INDEX 01 00:14:49
  TRACK 19 AUDIO
    TITLE "2:cjc143_1300"
    INDEX 01 00:14:70
  TRACK 20 AUDIO
    TITLE "0:"
    INDEX 01 00:16:42
  TRACK 21 AUDIO
    TITLE "2:cjc143_1301"
    INDEX 01 00:16:59
  TRACK 22 AUDIO
    TITLE "0:"
    INDEX 01 00:18:50
  TRACK 23 AUDIO
    TITLE "2:cjc143_1302"
    INDEX 01 00:18:64
  TRACK 24 AUDIO
    TITLE "0:"
    INDEX 01 00:20:65
  TRACK 25 AUDIO
    TITLE "2:cjc143_1303"
    INDEX 01 00:21:37
  TRACK 26 AUDIO
    TITLE "0:"
    INDEX 01 00:23:04
  TRACK 27 AUDIO
    TITLE "2:cjc143_1304"
    INDEX 01 00:23:20
  TRACK 28 AUDIO
    TITLE "0:"
    INDEX 01 00:25:29
  TRACK 29 AUDIO
    TITLE "2:cjc143_1305"
    INDEX 01 00:25:50
  TRACK 30 AUDIO
    TITLE "0:"
    INDEX 01 00:27:39
  TRACK 31 AUDIO
    TITLE "2:cjc143_1306"
    INDEX 01 00:27:61
  TRACK 32 AUDIO
    TITLE "0:"
    INDEX 01 00:29:17
  TRACK 33 AUDIO
    TITLE "2:cjc143_1307"
    INDEX 01 00:29:34
  TRACK 34 AUDIO
    TITLE "0:"
    INDEX 01 00:30:59
  TRACK 35 AUDIO
    TITLE "2:cjc143_1308"
    INDEX 01 00:30:65
  TRACK 36 AUDIO
    TITLE "0:"
    INDEX 01 00:32:25
  TRACK 37 AUDIO
    TITLE "2:cjc143_1309"
    INDEX 01 00:32:45
  TRACK 38 AUDIO
    TITLE "0:"
    INDEX 01 00:34:10
  TRACK 39 AUDIO
    TITLE "2:cjc143_1310"
    INDEX 01 00:34:26
  TRACK 40 AUDIO
    TITLE "0:"
    INDEX 01 00:35:68
  TRACK 41 AUDIO
    TITLE "2:cjc143_1311"
    INDEX 01 00:36:01
  TRACK 42 AUDIO
    TITLE "0:"
    INDEX 01 00:37:26
  TRACK 43 AUDIO
    TITLE "2:cjc143_1312"
    INDEX 01 00:37:38
  TRACK 44 AUDIO
    TITLE "0:"
    INDEX 01 00:38:71
  TRACK 45 AUDIO
    TITLE "2:cjc143_1313"
    INDEX 01 00:39:02
  TRACK 46 AUDIO
    TITLE "0:"
    INDEX 01 00:40:28
  TRACK 47 AUDIO
    TITLE "2:cjc143_1314"
    INDEX 01 00:40:38
  TRACK 48 AUDIO
    TITLE "0:"
    INDEX 01 00:41:69
  TRACK 49 AUDIO
    TITLE "2:cjc143_1315"
    INDEX 01 00:42:00
  TRACK 50 AUDIO
    TITLE "0:"
    INDEX 01 00:43:44
  TRACK 51 AUDIO
    TITLE "2:cjc143_1316"
    INDEX 01 00:43:50
  TRACK 52 AUDIO
    TITLE "0:"
    INDEX 01 00:45:08
  TRACK 53 AUDIO
    TITLE "2:cjc143_1317"
    INDEX 01 00:45:14
  TRACK 54 AUDIO
    TITLE "0:"
    INDEX 01 00:46:49
  TRACK 55 AUDIO
    TITLE "2:cjc143_1318"
    INDEX 01 00:47:25
  TRACK 56 AUDIO
    TITLE "0:"
    INDEX 01 00:48:53
  TRACK 57 AUDIO
    TITLE "2:cjc143_1319"
    INDEX 01 00:48:59
  TRACK 58 AUDIO
    TITLE "0:"
    INDEX 01 00:50:23
  TRACK 59 AUDIO
    TITLE "2:cjc143_1320"
    INDEX 01 00:50:37
  TRACK 60 AUDIO
    TITLE "0:"
    INDEX 01 00:52:18
  TRACK 61 AUDIO
    TITLE "2:cjc143_1321"
    INDEX 01 00:52:47
  TRACK 62 AUDIO
    TITLE "0:"
    INDEX 01 00:54:11
  TRACK 63 AUDIO
    TITLE "2:cjc143_1322"
    INDEX 01 00:54:19
  TRACK 64 AUDIO
    TITLE "0:"
    INDEX 01 00:55:55
  TRACK 65 AUDIO
    TITLE "2:cjc143_1323"
    INDEX 01 00:55:61
  TRACK 66 AUDIO
    TITLE "0:"
    INDEX 01 00:57:13
  TRACK 67 AUDIO
    TITLE "2:cjc143_1324"
    INDEX 01 00:57:19
  TRACK 68 AUDIO
    TITLE "0:"
    INDEX 01 00:58:58
  TRACK 69 AUDIO
    TITLE "2:cjc143_1325"
    INDEX 01 00:58:71
  TRACK 70 AUDIO
    TITLE "0:"
    INDEX 01 01:01:25
  TRACK 71 AUDIO
    TITLE "2:cjc143_1326"
    INDEX 01 01:01:74
  TRACK 72 AUDIO
    TITLE "0:"
    INDEX 01 01:03:53
  TRACK 73 AUDIO
    TITLE "2:cjc143_1327"
    INDEX 01 01:03:71
  TRACK 74 AUDIO
    TITLE "0:"
    INDEX 01 01:05:62
  TRACK 75 AUDIO
    TITLE "2:cjc143_1328"
    INDEX 01 01:05:73
  TRACK 76 AUDIO
    TITLE "0:"
    INDEX 01 01:07:64
  TRACK 77 AUDIO
    TITLE "2:cjc143_1329"
    INDEX 01 01:08:03
  TRACK 78 AUDIO
    TITLE "0:"
    INDEX 01 01:10:08
  TRACK 79 AUDIO
    TITLE "2:cjc143_1330"
    INDEX 01 01:10:31
  TRACK 80 AUDIO
    TITLE "0:"
    INDEX 01 01:12:24
  TRACK 81 AUDIO
    TITLE "2:cjc143_1331"
    INDEX 01 01:12:30
  TRACK 82 AUDIO
    TITLE "0:"
    INDEX 01 01:14:06
  TRACK 83 AUDIO
    TITLE "2:cjc143_1332"
    INDEX 01 01:14:12
  TRACK 84 AUDIO
    TITLE "0:"
    INDEX 01 01:16:11
  TRACK 85 AUDIO
    TITLE "2:cjc143_1333"
    INDEX 01 01:16:20
  TRACK 86 AUDIO
    TITLE "0:"
    INDEX 01 01:18:13
  TRACK 87 AUDIO
    TITLE "2:cjc143_1334"
    INDEX 01 01:18:19
  TRACK 88 AUDIO
    TITLE "0:"
    INDEX 01 01:19:38
  TRACK 89 AUDIO
    TITLE "2:cjc143_1335"
    INDEX 01 01:19:66
  TRACK 90 AUDIO
    TITLE "0:"
    INDEX 01 01:21:29
